<svg width="70" height="70" viewBox="0 0 70 70" fill="none" xmlns="http://www.w3.org/2000/svg">
<rect width="70" height="70" rx="5" fill="black"/>
<path d="M23 58V56.4963L26.4971 55.7444C28.0971 55.3799 29.1029 54.9698 29.5143 54.5141C29.9714 54.0584 30.2 53.1243 30.2 51.7117V18.2883C30.2 16.8301 29.9714 15.8732 29.5143 15.4175C29.1029 14.9619 28.0971 14.5745 26.4971 14.2556L23 13.5037V12H47V13.5037L43.5029 14.2556C41.9486 14.5745 40.9429 14.9619 40.4857 15.4175C40.0286 15.8732 39.8 16.8301 39.8 18.2883V51.7117C39.8 53.1243 40.0286 54.0584 40.4857 54.5141C40.9429 54.9698 41.9486 55.3799 43.5029 55.7444L47 56.4963V58H23Z" fill="white"/>
</svg>
