<svg width="207" height="37" viewBox="0 0 207 37" fill="none" xmlns="http://www.w3.org/2000/svg">
<path d="M203.37 23.9433C202.664 23.9433 202.002 23.8458 201.382 23.6508C200.763 23.4418 200.287 23.2468 199.956 23.0657C199.985 22.6617 199.999 22.202 199.999 21.6866C200.014 21.1711 199.963 20.6975 199.848 20.2657H200.669C200.756 20.809 200.921 21.3105 201.166 21.7702C201.425 22.2299 201.749 22.599 202.138 22.8776C202.542 23.1562 202.995 23.2955 203.5 23.2955C203.932 23.2955 204.278 23.1771 204.537 22.9403C204.81 22.7035 204.947 22.3761 204.947 21.9582C204.947 21.6239 204.883 21.3522 204.753 21.1433C204.623 20.9204 204.386 20.7184 204.04 20.5373C203.709 20.3423 203.226 20.1264 202.592 19.8896C201.728 19.5692 201.101 19.1861 200.712 18.7403C200.323 18.2806 200.129 17.6746 200.129 16.9224C200.129 16.4627 200.273 16.0378 200.561 15.6478C200.864 15.2577 201.274 14.9443 201.793 14.7075C202.326 14.4567 202.945 14.3314 203.651 14.3314C204.126 14.3314 204.515 14.3731 204.818 14.4567C205.12 14.5403 205.437 14.6517 205.768 14.7911H206.33C206.273 15.3065 206.258 15.7522 206.287 16.1284C206.33 16.5045 206.395 16.9154 206.481 17.3612H205.833C205.617 16.5811 205.307 15.9891 204.904 15.5851C204.501 15.1672 204.004 14.9582 203.413 14.9582C203.024 14.9582 202.707 15.0697 202.463 15.2925C202.232 15.5015 202.117 15.7801 202.117 16.1284C202.117 16.4627 202.189 16.7343 202.333 16.9433C202.477 17.1522 202.715 17.3333 203.046 17.4866C203.377 17.6398 203.817 17.807 204.364 17.9881C205.142 18.2527 205.776 18.608 206.265 19.0537C206.755 19.4856 207 20.1473 207 21.0388C207 21.5124 206.87 21.9721 206.611 22.4179C206.352 22.8637 205.948 23.2328 205.401 23.5254C204.868 23.804 204.191 23.9433 203.37 23.9433Z" fill="#FFF96C"/>
<path d="M193.683 23.7761V23.4209L194.375 23.1702C194.577 23.1005 194.721 22.996 194.807 22.8567C194.908 22.7035 194.958 22.5294 194.958 22.3343V17.9672C194.958 17.3542 194.793 16.8876 194.461 16.5672C194.144 16.2328 193.676 16.0657 193.057 16.0657C192.437 16.0657 191.955 16.2537 191.609 16.6299C191.278 16.992 191.112 17.4587 191.112 18.0299L190.788 15.8358H191.091C191.523 15.6408 191.955 15.4318 192.387 15.209C192.834 14.9721 193.28 14.7284 193.727 14.4776C193.885 14.3801 194.065 14.3313 194.267 14.3313C195.29 14.3313 196.082 14.5821 196.644 15.0836C197.205 15.5851 197.486 16.3095 197.486 17.2567V22.4806C197.486 22.6756 197.551 22.8289 197.681 22.9403C197.825 23.0517 197.954 23.1284 198.07 23.1702L198.761 23.4209V23.7761H193.683ZM187.309 23.7761V23.4209L188.001 23.1702C188.203 23.1005 188.347 22.996 188.433 22.8567C188.534 22.7035 188.584 22.5294 188.584 22.3343V16.3582C188.584 16.0657 188.534 15.8707 188.433 15.7731C188.332 15.6756 188.188 15.606 188.001 15.5642L187.309 15.397V15.0209C187.871 14.9373 188.347 14.8677 188.735 14.8119C189.139 14.7423 189.521 14.6657 189.881 14.5821C190.241 14.4846 190.63 14.3662 191.047 14.2269L191.264 14.394C191.163 14.5473 191.083 14.7841 191.026 15.1045C190.983 15.4249 190.961 15.7731 190.961 16.1493V16.3582L191.112 16.8179V22.4806C191.112 22.6756 191.177 22.8289 191.307 22.9403C191.451 23.0517 191.58 23.1284 191.696 23.1702L192.387 23.4209V23.7761H187.309Z" fill="#FFF96C"/>
<path d="M181.238 23.9433C180.273 23.9433 179.423 23.7343 178.689 23.3164C177.954 22.8985 177.385 22.3343 176.982 21.6239C176.578 20.9134 176.377 20.1124 176.377 19.2209C176.377 18.2597 176.578 17.4169 176.982 16.6925C177.385 15.9542 177.954 15.3831 178.689 14.9791C179.423 14.5612 180.273 14.3522 181.238 14.3522C182.218 14.3522 183.075 14.5612 183.81 14.9791C184.544 15.3831 185.113 15.9403 185.516 16.6507C185.92 17.3612 186.121 18.1622 186.121 19.0537C186.121 20.001 185.92 20.8438 185.516 21.5821C185.113 22.3204 184.544 22.8985 183.81 23.3164C183.075 23.7343 182.218 23.9433 181.238 23.9433ZM181.26 23.2746C181.951 23.2746 182.47 22.9542 182.816 22.3134C183.176 21.6587 183.356 20.6487 183.356 19.2836C183.356 17.8766 183.176 16.8179 182.816 16.1075C182.47 15.3831 181.937 15.0209 181.217 15.0209C180.54 15.0209 180.021 15.3413 179.661 15.9821C179.315 16.6229 179.142 17.6259 179.142 18.991C179.142 20.398 179.315 21.4637 179.661 22.1881C180.021 22.9124 180.554 23.2746 181.26 23.2746Z" fill="#FFF96C"/>
<path d="M170.64 23.7761V23.4209L171.331 23.1702C171.72 23.0169 171.915 22.7383 171.915 22.3343V16.3582C171.915 16.0657 171.864 15.8706 171.764 15.7731C171.663 15.6756 171.519 15.606 171.331 15.5642L170.64 15.397V15.0209C171.461 14.9095 172.16 14.805 172.736 14.7075C173.312 14.61 173.91 14.4498 174.529 14.2269L174.745 14.394C174.645 14.5473 174.565 14.7841 174.508 15.1045C174.464 15.4249 174.443 15.7731 174.443 16.1493V22.4806C174.443 22.6756 174.508 22.8289 174.637 22.9403C174.781 23.0517 174.911 23.1284 175.026 23.1702L175.718 23.4209V23.7761H170.64ZM173.146 12.3881C172.7 12.3881 172.318 12.2418 172.001 11.9493C171.699 11.6428 171.547 11.2736 171.547 10.8418C171.547 10.41 171.699 10.0478 172.001 9.75523C172.318 9.44876 172.7 9.29553 173.146 9.29553C173.593 9.29553 173.967 9.44876 174.27 9.75523C174.587 10.0478 174.745 10.41 174.745 10.8418C174.745 11.2736 174.587 11.6428 174.27 11.9493C173.967 12.2418 173.593 12.3881 173.146 12.3881Z" fill="#FFF96C"/>
<path d="M166.224 23.9433C164.783 23.9433 164.063 23.1005 164.063 21.4149V15.2298H162.68V14.6657C163.66 14.5403 164.416 14.2199 164.949 13.7045C165.482 13.1751 165.842 12.4368 166.029 11.4895H166.591V14.5403H169.076L168.86 15.2298H166.591V21.2478C166.591 21.7771 166.677 22.1323 166.85 22.3134C167.023 22.4806 167.246 22.5642 167.52 22.5642C167.722 22.5642 167.952 22.5154 168.212 22.4179C168.485 22.3204 168.759 22.195 169.033 22.0418L169.335 22.5851C168.759 23.0308 168.197 23.3721 167.65 23.6089C167.102 23.8318 166.627 23.9433 166.224 23.9433Z" fill="#FFF96C"/>
<path d="M155.71 23.9224C155.148 23.9224 154.651 23.7831 154.219 23.5045C153.787 23.2119 153.448 22.8358 153.203 22.3761C152.959 21.9025 152.836 21.394 152.836 20.8508C152.836 20.6 152.858 20.4259 152.901 20.3284C152.959 20.2169 153.045 20.1403 153.16 20.0985L157.611 18.4896C157.871 18.392 158.036 18.2876 158.108 18.1761C158.195 18.0647 158.238 17.9045 158.238 17.6955V16.9224C158.238 16.3095 158.087 15.8428 157.784 15.5224C157.496 15.1881 157.049 15.0209 156.444 15.0209C156.041 15.0209 155.717 15.1045 155.472 15.2716C155.227 15.4249 155.105 15.599 155.105 15.794C155.105 15.8915 155.134 15.9891 155.191 16.0866C155.249 16.1702 155.314 16.2607 155.386 16.3582C155.501 16.4975 155.595 16.6438 155.667 16.797C155.739 16.9363 155.775 17.0896 155.775 17.2567C155.775 17.5911 155.645 17.8557 155.386 18.0508C155.141 18.2318 154.831 18.3224 154.457 18.3224C154.068 18.3224 153.765 18.2179 153.549 18.009C153.333 17.8 153.225 17.5075 153.225 17.1313C153.225 16.6159 153.412 16.1493 153.787 15.7314C154.176 15.2995 154.665 14.9582 155.256 14.7075C155.861 14.4567 156.473 14.3314 157.093 14.3314C157.741 14.3314 158.339 14.4358 158.886 14.6448C159.448 14.8398 159.902 15.1463 160.247 15.5642C160.593 15.9821 160.766 16.5323 160.766 17.2149V21.7493C160.766 22.0139 160.795 22.2438 160.852 22.4388C160.91 22.6199 161.068 22.7105 161.328 22.7105C161.544 22.7105 161.846 22.6547 162.235 22.5433V23.0657C161.947 23.2328 161.573 23.4139 161.112 23.609C160.651 23.804 160.233 23.9015 159.858 23.9015C159.57 23.9015 159.318 23.8458 159.102 23.7343C158.9 23.6229 158.742 23.4348 158.627 23.1702C158.512 22.8915 158.447 22.5294 158.432 22.0836V21.7702L159.037 22.2508C158.706 22.5154 158.353 22.7801 157.979 23.0448C157.618 23.2955 157.244 23.5045 156.855 23.6716C156.48 23.8388 156.099 23.9224 155.71 23.9224ZM156.92 22.6687C157.121 22.6687 157.302 22.6338 157.46 22.5642C157.618 22.4945 157.798 22.397 158 22.2716C158.159 22.1602 158.238 21.9652 158.238 21.6866V19.2C158.238 19.1582 158.223 19.1304 158.195 19.1164C158.18 19.0886 158.151 19.0886 158.108 19.1164L155.537 20.0149C155.451 20.0428 155.386 20.0985 155.343 20.1821C155.314 20.2657 155.299 20.4189 155.299 20.6418C155.299 20.9761 155.371 21.2965 155.515 21.603C155.659 21.9095 155.854 22.1672 156.099 22.3761C156.358 22.5711 156.632 22.6687 156.92 22.6687Z" fill="#FFF96C"/>
<path d="M143.61 23.7761V23.4209L144.302 23.1702C144.518 23.0866 144.669 22.9821 144.755 22.8567C144.842 22.7313 144.885 22.5572 144.885 22.3343V16.3582C144.885 16.0657 144.835 15.8707 144.734 15.7731C144.633 15.6756 144.489 15.606 144.302 15.5642L143.61 15.397V15.0209C144.172 14.9373 144.647 14.8677 145.036 14.8119C145.44 14.7423 145.821 14.6657 146.181 14.5821C146.542 14.4846 146.93 14.3662 147.348 14.2269L147.564 14.394C147.463 14.5473 147.384 14.7841 147.327 15.1045C147.283 15.4249 147.262 15.7731 147.262 16.1493V16.3582L147.413 16.8179V22.4806C147.413 22.6338 147.471 22.7662 147.586 22.8776C147.701 22.9891 147.874 23.0866 148.104 23.1702L148.904 23.4209V23.7761H143.61ZM147.413 18.3642L147.046 16.2328L149.617 14.6866C149.847 14.5473 150.042 14.4567 150.2 14.4149C150.359 14.3731 150.51 14.3522 150.654 14.3522C151.014 14.3522 151.338 14.4985 151.626 14.791C151.929 15.0836 152.08 15.4458 152.08 15.8776C152.08 16.2259 151.936 16.5463 151.648 16.8388C151.374 17.1174 151.007 17.2567 150.546 17.2567C150.272 17.2567 150.035 17.194 149.833 17.0687C149.646 16.9433 149.48 16.8109 149.336 16.6716C149.235 16.5602 149.127 16.4557 149.012 16.3582C148.897 16.2468 148.767 16.191 148.623 16.191C148.493 16.191 148.335 16.2398 148.148 16.3373C147.96 16.4348 147.788 16.6438 147.629 16.9642C147.485 17.2707 147.413 17.7373 147.413 18.3642Z" fill="#FFF96C"/>
<path d="M137.554 23.7761V23.4209L138.246 23.1702C138.635 23.0169 138.829 22.7383 138.829 22.3343V16.3582C138.829 16.0657 138.779 15.8706 138.678 15.7731C138.577 15.6756 138.433 15.606 138.246 15.5642L137.554 15.397V15.0209C138.375 14.9095 139.074 14.805 139.65 14.7075C140.226 14.61 140.824 14.4498 141.444 14.2269L141.66 14.394C141.559 14.5473 141.48 14.7841 141.422 15.1045C141.379 15.4249 141.357 15.7731 141.357 16.1493V22.4806C141.357 22.6756 141.422 22.8289 141.552 22.9403C141.696 23.0517 141.825 23.1284 141.941 23.1702L142.632 23.4209V23.7761H137.554ZM140.061 12.3881C139.614 12.3881 139.233 12.2418 138.916 11.9493C138.613 11.6428 138.462 11.2736 138.462 10.8418C138.462 10.41 138.613 10.0478 138.916 9.75523C139.233 9.44876 139.614 9.29553 140.061 9.29553C140.507 9.29553 140.882 9.44876 141.184 9.75523C141.501 10.0478 141.66 10.41 141.66 10.8418C141.66 11.2736 141.501 11.6428 141.184 11.9493C140.882 12.2418 140.507 12.3881 140.061 12.3881Z" fill="#FFF96C"/>
<path d="M125.29 29V28.6448L125.981 28.394C126.198 28.3104 126.349 28.206 126.435 28.0806C126.522 27.9552 126.565 27.7811 126.565 27.5582V16.3582C126.565 16.0657 126.514 15.8707 126.414 15.7731C126.313 15.6756 126.169 15.606 125.981 15.5642L125.29 15.397V15.0209C125.852 14.9373 126.327 14.8677 126.716 14.8119C127.119 14.7423 127.501 14.6657 127.861 14.5821C128.221 14.4846 128.61 14.3662 129.028 14.2269L129.244 14.394C129.172 14.5055 129.107 14.6726 129.05 14.8955C129.006 15.1045 128.97 15.3483 128.942 15.6269H128.985L130.778 14.603C130.893 14.5333 131.023 14.4776 131.167 14.4358C131.311 14.3801 131.455 14.3522 131.599 14.3522C132.68 14.3522 133.573 14.5751 134.279 15.0209C134.984 15.4527 135.51 16.0239 135.856 16.7343C136.202 17.4448 136.374 18.197 136.374 18.991C136.374 19.5901 136.274 20.1891 136.072 20.7881C135.885 21.3731 135.589 21.9095 135.186 22.397C134.797 22.8706 134.3 23.2537 133.695 23.5463C133.09 23.8249 132.377 23.9642 131.556 23.9642C131.081 23.9642 130.627 23.9085 130.195 23.797C129.763 23.6995 129.395 23.5811 129.093 23.4418V27.7045C129.093 27.8577 129.15 27.9901 129.266 28.1015C129.381 28.2129 129.554 28.3104 129.784 28.394L130.584 28.6448V29H125.29ZM131.254 23.2328C131.801 23.2328 132.247 23.0726 132.593 22.7522C132.939 22.4179 133.191 21.9861 133.349 21.4567C133.522 20.9274 133.609 20.3702 133.609 19.7851C133.609 19.1025 133.515 18.4687 133.328 17.8836C133.141 17.2846 132.852 16.797 132.464 16.4209C132.075 16.0448 131.57 15.8567 130.951 15.8567C130.375 15.8567 129.921 16.0378 129.59 16.4C129.258 16.7622 129.093 17.1871 129.093 17.6746V20.5373C129.093 21.0249 129.194 21.4776 129.395 21.8955C129.597 22.2995 129.863 22.6269 130.195 22.8776C130.526 23.1144 130.879 23.2328 131.254 23.2328Z" fill="#FFF96C"/>
<path d="M120.361 23.9433C119.655 23.9433 118.992 23.8458 118.373 23.6508C117.753 23.4418 117.278 23.2468 116.947 23.0657C116.975 22.6617 116.99 22.202 116.99 21.6866C117.004 21.1711 116.954 20.6975 116.839 20.2657H117.66C117.746 20.809 117.912 21.3105 118.157 21.7702C118.416 22.2299 118.74 22.599 119.129 22.8776C119.532 23.1562 119.986 23.2955 120.49 23.2955C120.922 23.2955 121.268 23.1771 121.527 22.9403C121.801 22.7035 121.938 22.3761 121.938 21.9582C121.938 21.6239 121.873 21.3522 121.743 21.1433C121.614 20.9204 121.376 20.7184 121.03 20.5373C120.699 20.3423 120.216 20.1264 119.583 19.8896C118.718 19.5692 118.092 19.1861 117.703 18.7403C117.314 18.2806 117.119 17.6746 117.119 16.9224C117.119 16.4627 117.264 16.0378 117.552 15.6478C117.854 15.2577 118.265 14.9443 118.783 14.7075C119.316 14.4567 119.936 14.3314 120.641 14.3314C121.117 14.3314 121.506 14.3731 121.808 14.4567C122.111 14.5403 122.428 14.6517 122.759 14.7911H123.321C123.263 15.3065 123.249 15.7522 123.277 16.1284C123.321 16.5045 123.386 16.9154 123.472 17.3612H122.824C122.608 16.5811 122.298 15.9891 121.895 15.5851C121.491 15.1672 120.994 14.9582 120.404 14.9582C120.015 14.9582 119.698 15.0697 119.453 15.2925C119.223 15.5015 119.107 15.7801 119.107 16.1284C119.107 16.4627 119.179 16.7343 119.323 16.9433C119.467 17.1522 119.705 17.3333 120.036 17.4866C120.368 17.6398 120.807 17.807 121.354 17.9881C122.132 18.2527 122.766 18.608 123.256 19.0537C123.746 19.4856 123.99 20.1473 123.99 21.0388C123.99 21.5124 123.861 21.9721 123.602 22.4179C123.342 22.8637 122.939 23.2328 122.392 23.5254C121.859 23.804 121.182 23.9433 120.361 23.9433Z" fill="#FFF96C"/>
<path d="M110.674 23.7761V23.4209L111.365 23.1702C111.567 23.1005 111.711 22.996 111.798 22.8567C111.898 22.7035 111.949 22.5294 111.949 22.3343V17.9672C111.949 17.3542 111.783 16.8876 111.452 16.5672C111.135 16.2328 110.667 16.0657 110.047 16.0657C109.428 16.0657 108.945 16.2537 108.6 16.6299C108.268 16.992 108.103 17.4587 108.103 18.0299L107.779 15.8358H108.081C108.513 15.6408 108.945 15.4318 109.378 15.209C109.824 14.9721 110.271 14.7284 110.717 14.4776C110.876 14.3801 111.056 14.3313 111.257 14.3313C112.28 14.3313 113.072 14.5821 113.634 15.0836C114.196 15.5851 114.477 16.3095 114.477 17.2567V22.4806C114.477 22.6756 114.542 22.8289 114.671 22.9403C114.815 23.0517 114.945 23.1284 115.06 23.1702L115.752 23.4209V23.7761H110.674ZM104.3 23.7761V23.4209L104.991 23.1702C105.193 23.1005 105.337 22.996 105.423 22.8567C105.524 22.7035 105.575 22.5294 105.575 22.3343V16.3582C105.575 16.0657 105.524 15.8707 105.423 15.7731C105.323 15.6756 105.179 15.606 104.991 15.5642L104.3 15.397V15.0209C104.862 14.9373 105.337 14.8677 105.726 14.8119C106.129 14.7423 106.511 14.6657 106.871 14.5821C107.231 14.4846 107.62 14.3662 108.038 14.2269L108.254 14.394C108.153 14.5473 108.074 14.7841 108.016 15.1045C107.973 15.4249 107.951 15.7731 107.951 16.1493V16.3582L108.103 16.8179V22.4806C108.103 22.6756 108.168 22.8289 108.297 22.9403C108.441 23.0517 108.571 23.1284 108.686 23.1702L109.378 23.4209V23.7761H104.3Z" fill="#FFF96C"/>
<path d="M95.4377 23.7761V23.3164L96.5397 23.0866C97.0438 22.9751 97.3607 22.8497 97.4904 22.7104C97.6344 22.5711 97.7064 22.2856 97.7064 21.8537V11.6358C97.7064 11.19 97.6344 10.8975 97.4904 10.7582C97.3607 10.6189 97.0438 10.5005 96.5397 10.403L95.4377 10.1731V9.71343H103V10.1731L101.898 10.403C101.408 10.5005 101.092 10.6189 100.947 10.7582C100.803 10.8975 100.731 11.19 100.731 11.6358V21.8537C100.731 22.2856 100.803 22.5711 100.947 22.7104C101.092 22.8497 101.408 22.9751 101.898 23.0866L103 23.3164V23.7761H95.4377Z" fill="#FFF96C"/>
<path d="M82.4735 24.0269C78.8651 24.0269 76.9421 22.2716 76.9421 19.7224C76.9421 15.1463 84.5261 14.6866 84.5261 11.5522C84.5261 10.6537 83.9644 10.0478 83.0137 10.0478C81.9981 10.0478 81.3283 10.6746 81.3283 11.8448C81.3283 14.2478 85.6497 17.403 88.5234 19.597C89.7982 20.5582 91.0514 21.2895 91.7429 21.6448L90.3384 24.0478C89.1716 23.4 88.1129 22.7731 86.5572 21.5194C82.9488 18.5522 78.8003 15.3134 78.8003 11.9493C78.8003 9.52537 80.5721 8 82.9488 8C85.3688 8 86.9461 9.29552 86.9461 11.4478C86.9461 15.8149 79.7726 16.4209 79.7726 19.6388C79.7726 20.997 81.0258 21.6866 82.7544 21.6866C84.1156 21.6866 85.4336 20.7672 86.514 19.3881C87.4431 18.2388 88.0697 16.9015 88.329 15.1463H91.1379C90.6841 17.2567 89.8631 19.0746 88.5883 20.8298C87.1406 22.794 85.3472 24.0269 82.4735 24.0269Z" fill="#FFF96C"/>
<path d="M64.5043 23.7761V23.4209L65.1958 23.1702C65.4118 23.0866 65.5631 22.9821 65.6495 22.8567C65.7359 22.7313 65.7791 22.5572 65.7791 22.3343V16.3582C65.7791 16.0657 65.7287 15.8707 65.6279 15.7731C65.5271 15.6756 65.383 15.606 65.1958 15.5642L64.5043 15.397V15.0209C65.0661 14.9373 65.5415 14.8677 65.9304 14.8119C66.3337 14.7423 66.7154 14.6657 67.0756 14.5821C67.4357 14.4846 67.8246 14.3662 68.2423 14.2269L68.4584 14.394C68.3576 14.5473 68.2783 14.7841 68.2207 15.1045C68.1775 15.4249 68.1559 15.7731 68.1559 16.1493V16.3582L68.3072 16.8179V22.4806C68.3072 22.6338 68.3648 22.7662 68.48 22.8776C68.5952 22.9891 68.7681 23.0866 68.9986 23.1702L69.798 23.4209V23.7761H64.5043ZM68.3072 18.3642L67.9398 16.2328L70.5111 14.6866C70.7415 14.5473 70.936 14.4567 71.0944 14.4149C71.2529 14.3731 71.4041 14.3522 71.5482 14.3522C71.9083 14.3522 72.2324 14.4985 72.5205 14.791C72.823 15.0836 72.9742 15.4458 72.9742 15.8776C72.9742 16.2259 72.8302 16.5463 72.5421 16.8388C72.2684 17.1174 71.9011 17.2567 71.4402 17.2567C71.1665 17.2567 70.9288 17.194 70.7271 17.0687C70.5399 16.9433 70.3742 16.8109 70.2302 16.6716C70.1293 16.5602 70.0213 16.4557 69.9061 16.3582C69.7908 16.2468 69.6612 16.191 69.5171 16.191C69.3875 16.191 69.229 16.2398 69.0418 16.3373C68.8545 16.4348 68.6817 16.6438 68.5232 16.9642C68.3792 17.2707 68.3072 17.7373 68.3072 18.3642Z" fill="#FFF96C"/>
<path d="M58.4332 23.9433C57.4681 23.9433 56.6182 23.7343 55.8836 23.3164C55.1489 22.8985 54.5799 22.3343 54.1766 21.6239C53.7733 20.9134 53.5716 20.1124 53.5716 19.2209C53.5716 18.2597 53.7733 17.4169 54.1766 16.6925C54.5799 15.9542 55.1489 15.3831 55.8836 14.9791C56.6182 14.5612 57.4681 14.3522 58.4332 14.3522C59.4127 14.3522 60.2698 14.5612 61.0044 14.9791C61.739 15.3831 62.308 15.9403 62.7113 16.6507C63.1147 17.3612 63.3163 18.1622 63.3163 19.0537C63.3163 20.001 63.1147 20.8438 62.7113 21.5821C62.308 22.3204 61.739 22.8985 61.0044 23.3164C60.2698 23.7343 59.4127 23.9433 58.4332 23.9433ZM58.4548 23.2746C59.1462 23.2746 59.6648 22.9542 60.0105 22.3134C60.3706 21.6587 60.5507 20.6487 60.5507 19.2836C60.5507 17.8766 60.3706 16.8179 60.0105 16.1075C59.6648 15.3831 59.1318 15.0209 58.4116 15.0209C57.7346 15.0209 57.216 15.3413 56.8559 15.9821C56.5102 16.6229 56.3373 17.6259 56.3373 18.991C56.3373 20.398 56.5102 21.4637 56.8559 22.1881C57.216 22.9124 57.749 23.2746 58.4548 23.2746Z" fill="#FFF96C"/>
<path d="M47.8349 23.7761V23.4209L48.5263 23.1702C48.9153 23.0169 49.1097 22.7383 49.1097 22.3343V16.3582C49.1097 16.0657 49.0593 15.8706 48.9585 15.7731C48.8576 15.6756 48.7136 15.606 48.5263 15.5642L47.8349 15.397V15.0209C48.656 14.9095 49.3546 14.805 49.9308 14.7075C50.507 14.61 51.1048 14.4498 51.7242 14.2269L51.9402 14.394C51.8394 14.5473 51.7602 14.7841 51.7026 15.1045C51.6593 15.4249 51.6377 15.7731 51.6377 16.1493V22.4806C51.6377 22.6756 51.7025 22.8289 51.8322 22.9403C51.9762 23.0517 52.1059 23.1284 52.2211 23.1702L52.9125 23.4209V23.7761H47.8349ZM50.3413 12.3881C49.8948 12.3881 49.513 12.2418 49.1961 11.9493C48.8936 11.6428 48.7424 11.2736 48.7424 10.8418C48.7424 10.41 48.8936 10.0478 49.1961 9.75523C49.513 9.44876 49.8948 9.29553 50.3413 9.29553C50.7879 9.29553 51.1624 9.44876 51.4649 9.75523C51.7818 10.0478 51.9402 10.41 51.9402 10.8418C51.9402 11.2736 51.7818 11.6428 51.4649 11.9493C51.1624 12.2418 50.7879 12.3881 50.3413 12.3881Z" fill="#FFF96C"/>
<path d="M38.5085 23.7761V23.4209L39.1999 23.1702C39.416 23.0866 39.5672 22.9821 39.6536 22.8567C39.7401 22.7313 39.7833 22.5572 39.7833 22.3343V16.3582C39.7833 16.0657 39.7329 15.8707 39.632 15.7731C39.5312 15.6756 39.3872 15.606 39.1999 15.5642L38.5085 15.397V15.0209C39.0703 14.9373 39.5456 14.8677 39.9345 14.8119C40.3379 14.7423 40.7196 14.6657 41.0797 14.5821C41.4398 14.4846 41.8287 14.3662 42.2465 14.2269L42.4625 14.394C42.3617 14.5473 42.2825 14.7841 42.2249 15.1045C42.1817 15.4249 42.16 15.7731 42.16 16.1493V16.3582L42.3113 16.8179V22.4806C42.3113 22.6338 42.3689 22.7662 42.4841 22.8776C42.5994 22.9891 42.7722 23.0866 43.0027 23.1702L43.8022 23.4209V23.7761H38.5085ZM42.3113 18.3642L41.944 16.2328L44.5152 14.6866C44.7457 14.5473 44.9401 14.4567 45.0986 14.4149C45.257 14.3731 45.4083 14.3522 45.5523 14.3522C45.9125 14.3522 46.2366 14.4985 46.5246 14.791C46.8271 15.0836 46.9784 15.4458 46.9784 15.8776C46.9784 16.2259 46.8343 16.5463 46.5463 16.8388C46.2726 17.1174 45.9053 17.2567 45.4443 17.2567C45.1706 17.2567 44.9329 17.194 44.7313 17.0687C44.544 16.9433 44.3784 16.8109 44.2343 16.6716C44.1335 16.5602 44.0254 16.4557 43.9102 16.3582C43.795 16.2468 43.6653 16.191 43.5213 16.191C43.3916 16.191 43.2332 16.2398 43.0459 16.3373C42.8587 16.4348 42.6858 16.6438 42.5274 16.9642C42.3833 17.2707 42.3113 17.7373 42.3113 18.3642Z" fill="#FFF96C"/>
<path d="M33.2577 23.9433C32.3358 23.9433 31.5148 23.7343 30.7945 23.3164C30.0887 22.8985 29.5269 22.3343 29.1092 21.6239C28.7058 20.9134 28.5042 20.1264 28.5042 19.2627C28.5042 18.2876 28.7203 17.4309 29.1524 16.6925C29.5989 15.9542 30.1967 15.3761 30.9458 14.9582C31.7092 14.5403 32.5663 14.3314 33.517 14.3314C34.2804 14.3314 34.9431 14.5055 35.5048 14.8537C36.081 15.1881 36.5276 15.6547 36.8445 16.2537C37.1614 16.8388 37.3198 17.5005 37.3198 18.2388C37.3198 18.3781 37.2766 18.5035 37.1902 18.6149C37.1182 18.7124 36.9957 18.7612 36.8229 18.7612H29.8222V18.009L34.5109 17.8209C34.7126 17.8209 34.8134 17.6746 34.8134 17.3821C34.8134 16.6438 34.6838 16.0657 34.4245 15.6478C34.1652 15.2159 33.8195 15 33.3874 15C32.7247 15 32.2062 15.3483 31.8317 16.0448C31.4571 16.7413 31.2699 17.6537 31.2699 18.7821C31.2699 19.5622 31.4139 20.2239 31.702 20.7672C31.9901 21.3105 32.3718 21.7214 32.8472 22C33.3225 22.2786 33.8411 22.4179 34.4029 22.4179C35.2528 22.4179 36.1026 22.0697 36.9525 21.3731L37.3198 21.7075C36.7436 22.4736 36.117 23.0378 35.44 23.4C34.763 23.7622 34.0356 23.9433 33.2577 23.9433Z" fill="#FFF96C"/>
<path d="M24.5125 23.9433C23.0721 23.9433 22.3518 23.1005 22.3518 21.4149V15.2298H20.969V14.6657C21.9485 14.5403 22.7047 14.2199 23.2377 13.7045C23.7707 13.1751 24.1308 12.4368 24.3181 11.4895H24.8798V14.5403H27.3646L27.1486 15.2298H24.8798V21.2478C24.8798 21.7771 24.9663 22.1323 25.1391 22.3134C25.312 22.4806 25.5353 22.5642 25.8089 22.5642C26.0106 22.5642 26.2411 22.5154 26.5004 22.4179C26.7741 22.3204 27.0477 22.195 27.3214 22.0418L27.6239 22.5851C27.0477 23.0308 26.486 23.3721 25.9386 23.6089C25.3912 23.8318 24.9159 23.9433 24.5125 23.9433Z" fill="#FFF96C"/>
<path d="M15.2363 23.7761V23.4209L15.9277 23.1702C16.1294 23.1005 16.2734 22.996 16.3598 22.8567C16.4607 22.7035 16.5111 22.5294 16.5111 22.3343V17.9672C16.5111 17.3542 16.3454 16.8876 16.0141 16.5672C15.6972 16.2328 15.2291 16.0657 14.6097 16.0657C13.9903 16.0657 13.5077 16.2537 13.162 16.6299C12.8307 16.992 12.665 17.4587 12.665 18.0299L12.3409 15.8358H12.6434C13.0756 15.6408 13.5077 15.4318 13.9399 15.209C14.3864 14.9721 14.8329 14.7284 15.2795 14.4776C15.4379 14.3801 15.618 14.3313 15.8197 14.3313C16.8424 14.3313 17.6346 14.5821 18.1964 15.0836C18.7582 15.5851 19.0391 16.3095 19.0391 17.2567V22.4806C19.0391 22.6756 19.1039 22.8289 19.2336 22.9403C19.3776 23.0517 19.5072 23.1284 19.6225 23.1702L20.3139 23.4209V23.7761H15.2363ZM8.86222 23.7761V23.4209L9.55365 23.1702C9.75531 23.1005 9.89936 22.996 9.98579 22.8567C10.0866 22.7035 10.137 22.5294 10.137 22.3343V16.3582C10.137 16.0657 10.0866 15.8707 9.98579 15.7731C9.88495 15.6756 9.74091 15.606 9.55365 15.5642L8.86222 15.397V15.0209C9.424 14.9373 9.89936 14.8677 10.2883 14.8119C10.6916 14.7423 11.0733 14.6657 11.4334 14.5821C11.7936 14.4846 12.1825 14.3662 12.6002 14.2269L12.8163 14.394C12.7155 14.5473 12.6362 14.7841 12.5786 15.1045C12.5354 15.4249 12.5138 15.7731 12.5138 16.1493V16.3582L12.665 16.8179V22.4806C12.665 22.6756 12.7299 22.8289 12.8595 22.9403C13.0036 23.0517 13.1332 23.1284 13.2484 23.1702L13.9399 23.4209V23.7761H8.86222Z" fill="#FFF96C"/>
<path d="M0 23.7761V23.3164L1.10195 23.0866C1.60612 22.9751 1.92302 22.8497 2.05266 22.7104C2.19671 22.5711 2.26873 22.2856 2.26873 21.8537V11.6358C2.26873 11.19 2.19671 10.8975 2.05266 10.7582C1.92302 10.6189 1.60612 10.5005 1.10195 10.403L0 10.1731V9.71343H7.56243V10.1731L6.46048 10.403C5.97072 10.5005 5.65382 10.6189 5.50977 10.7582C5.36572 10.8975 5.2937 11.19 5.2937 11.6358V21.8537C5.2937 22.2856 5.36572 22.5711 5.50977 22.7104C5.65382 22.8497 5.97072 22.9751 6.46048 23.0866L7.56243 23.3164V23.7761H0Z" fill="#FFF96C"/>
</svg>
